<svg xmlns="http://www.w3.org/2000/svg" width="1400" height="760" viewBox="0 0 1400 760" role="img" aria-label="Skill2 capabilities">
  <rect width="1400" height="760" fill="#fff"/>
  <rect x="28" y="28" width="1344" height="704" rx="20" fill="#fff" stroke="#111" stroke-width="2"/>

  <g transform="translate(68 60)">
    <rect width="54" height="54" rx="11" fill="#111"/>
    <path d="M32 15H20c-5 0-8 3-8 7s3 6 8 6h9c5 0 8 3 8 7s-4 7-9 7H15" fill="none" stroke="#fff" stroke-width="6" stroke-linecap="round"/>
    <path d="M37 12l2-5 3 5m3 0 4-5 2 6" fill="#fff"/>
    <rect x="37" y="10" width="14" height="11" rx="4" fill="#fff"/>
    <circle cx="42" cy="15" r="1" fill="#111"/>
    <circle cx="47" cy="15" r="1" fill="#111"/>
  </g>
  <text x="140" y="94" fill="#111" font-family="ui-monospace, SFMono-Regular, Menlo, Consolas, monospace" font-size="30" font-weight="700">SKILL2</text>
  <text x="140" y="120" fill="#666" font-family="ui-monospace, SFMono-Regular, Menlo, Consolas, monospace" font-size="15">SKILLS FOR YOUR SKILLS</text>
  <text x="1090" y="92" fill="#111" font-family="ui-monospace, SFMono-Regular, Menlo, Consolas, monospace" font-size="14">LOCAL-FIRST / READ-ONLY</text>
  <line x1="68" y1="142" x2="1332" y2="142" stroke="#111" stroke-width="2"/>

  <g transform="translate(70 180)" font-family="ui-monospace, SFMono-Regular, Menlo, Consolas, monospace">
    <rect width="330" height="420" rx="12" fill="#0a0a0a"/>
    <text x="26" y="42" fill="#fff" font-size="17" font-weight="700">$ skill2</text>
    <text x="26" y="72" fill="#999" font-size="12">one library · five focused skills</text>
    <line x1="26" y1="96" x2="304" y2="96" stroke="#444"/>

    <g fill="#fff" font-size="14">
      <text x="26" y="135">01  create</text>
      <text x="26" y="180">02  test</text>
      <text x="26" y="225">03  audit</text>
      <text x="26" y="270">04  package</text>
      <text x="26" y="315">05  visualize</text>
    </g>
    <g fill="#777" font-size="12" text-anchor="end">
      <text x="304" y="135">write</text>
      <text x="304" y="180">prove</text>
      <text x="304" y="225">inspect</text>
      <text x="304" y="270">install / ship</text>
      <text x="304" y="315">understand</text>
    </g>
    <text x="26" y="398" fill="#aaa" font-size="12">agent judgment + deterministic CLI</text>
  </g>

  <path d="M424 390h54" fill="none" stroke="#111" stroke-width="2"/>
  <path d="M470 382l10 8-10 8" fill="none" stroke="#111" stroke-width="2"/>

  <g transform="translate(502 180)" font-family="ui-monospace, SFMono-Regular, Menlo, Consolas, monospace">
    <g transform="translate(0 0)">
      <rect width="398" height="126" rx="10" fill="#fff" stroke="#111" stroke-width="2"/>
      <rect width="398" height="36" rx="9" fill="#111"/>
      <rect y="27" width="398" height="9" fill="#111"/>
      <text x="18" y="24" fill="#fff" font-size="14" font-weight="700">01  CREATE</text>
      <text x="18" y="66" fill="#111" font-size="13">Design or restructure a Skill.</text>
      <text x="18" y="91" fill="#666" font-size="12">scope · SKILL.md · resources</text>
      <text x="18" y="111" fill="#666" font-size="12">minimal, spec-valid structure</text>
      <g fill="none" stroke="#111" stroke-width="1.8" stroke-linejoin="round">
        <path d="M328 65h25l10 10v28h-35z"/>
        <path d="M353 65v10h10"/>
        <path d="M342 81v14M335 88h14"/>
      </g>
    </g>
    <g transform="translate(420 0)">
      <rect width="398" height="126" rx="10" fill="#fff" stroke="#111" stroke-width="2"/>
      <rect width="398" height="36" rx="9" fill="#111"/>
      <rect y="27" width="398" height="9" fill="#111"/>
      <text x="18" y="24" fill="#fff" font-size="14" font-weight="700">02  TEST</text>
      <text x="18" y="66" fill="#111" font-size="13">Prove activation and outcome.</text>
      <text x="18" y="91" fill="#666" font-size="12">isolated case · activation · outcome</text>
      <text x="18" y="111" fill="#666" font-size="12">optional baseline</text>
      <g fill="none" stroke="#111" stroke-width="1.6">
        <rect x="320" y="65" width="48" height="16" rx="3"/>
        <rect x="320" y="88" width="48" height="16" rx="3"/>
        <path d="M326 73l4 4 7-8M326 96l4 4 7-8"/>
        <line x1="343" y1="73" x2="362" y2="73"/>
        <line x1="343" y1="96" x2="362" y2="96"/>
      </g>
    </g>
    <g transform="translate(0 144)">
      <rect width="398" height="126" rx="10" fill="#fff" stroke="#111" stroke-width="2"/>
      <rect width="398" height="36" rx="9" fill="#111"/>
      <rect y="27" width="398" height="9" fill="#111"/>
      <text x="18" y="24" fill="#fff" font-size="14" font-weight="700">03  AUDIT</text>
      <text x="18" y="66" fill="#111" font-size="13">Inspect Skill or whole library.</text>
      <text x="18" y="91" fill="#666" font-size="12">contract · safety · behavior</text>
      <text x="18" y="111" fill="#666" font-size="12">evidence-backed findings</text>
      <g fill="none" stroke="#111" stroke-width="1.7" stroke-linecap="round">
        <rect x="321" y="65" width="31" height="38" rx="3"/>
        <line x1="327" y1="74" x2="346" y2="74"/>
        <line x1="327" y1="82" x2="342" y2="82"/>
        <circle cx="353" cy="92" r="10" fill="#fff"/>
        <line x1="360" y1="99" x2="368" y2="107"/>
      </g>
    </g>
    <g transform="translate(420 144)">
      <rect width="398" height="126" rx="10" fill="#fff" stroke="#111" stroke-width="2"/>
      <rect width="398" height="36" rx="9" fill="#111"/>
      <rect y="27" width="398" height="9" fill="#111"/>
      <text x="18" y="24" fill="#fff" font-size="14" font-weight="700">04  PACKAGE</text>
      <text x="18" y="66" fill="#111" font-size="13">Package or publish Skills.</text>
      <text x="18" y="91" fill="#666" font-size="12">native · artifact · release</text>
      <text x="18" y="111" fill="#666" font-size="12">smallest profile first</text>
      <g fill="none" stroke="#111" stroke-width="1.7" stroke-linejoin="round">
        <path d="M321 73l23-12 23 12-23 12z"/>
        <path d="M321 73v23l23 12 23-12V73M344 85v23"/>
        <path d="M336 65l23 12"/>
      </g>
    </g>
    <g transform="translate(210 288)">
      <rect width="398" height="126" rx="10" fill="#fff" stroke="#111" stroke-width="2"/>
      <rect width="398" height="36" rx="9" fill="#111"/>
      <rect y="27" width="398" height="9" fill="#111"/>
      <text x="18" y="24" fill="#fff" font-size="14" font-weight="700">05  VISUALIZE</text>
      <text x="18" y="66" fill="#111" font-size="13">See library health.</text>
      <text x="18" y="91" fill="#666" font-size="12">usage · tests · lifecycle</text>
      <text x="18" y="111" fill="#666" font-size="12">terminal-first, read-only</text>
      <g font-size="5.5" fill="#111">
        <text x="310" y="70">skill-1</text>
        <text x="310" y="85">skill-2</text>
        <text x="310" y="100">skill-3</text>
        <rect x="345" y="64" width="30" height="6" rx="1"/>
        <rect x="345" y="79" width="21" height="6" rx="1"/>
        <rect x="345" y="94" width="11" height="6" rx="1"/>
      </g>
    </g>
  </g>

  <text x="70" y="690" fill="#111" font-family="ui-monospace, SFMono-Regular, Menlo, Consolas, monospace" font-size="15">CREATE → TEST → AUDIT → PACKAGE → VISUALIZE</text>
  <text x="1330" y="690" fill="#666" text-anchor="end" font-family="ui-monospace, SFMono-Regular, Menlo, Consolas, monospace" font-size="13">NO HOSTED SERVICE · NO TELEMETRY</text>
</svg>
