<svg xmlns="http://www.w3.org/2000/svg" width="980" height="260" viewBox="0 0 980 260" role="img" aria-label="Skill2 workflow">
  <rect width="980" height="260" rx="24" fill="#f8fafc"/>
  <rect x="36" y="42" width="252" height="176" rx="16" fill="#1f2933"/>
  <rect x="364" y="42" width="252" height="176" rx="16" fill="#ffffff" stroke="#cbd5e1" stroke-width="2"/>
  <rect x="692" y="42" width="252" height="176" rx="16" fill="#ffffff" stroke="#cbd5e1" stroke-width="2"/>
  <path d="M307 130h36" stroke="#64748b" stroke-width="4" stroke-linecap="round"/>
  <path d="M339 119l14 11-14 11" fill="none" stroke="#64748b" stroke-width="4" stroke-linecap="round" stroke-linejoin="round"/>
  <path d="M635 130h36" stroke="#64748b" stroke-width="4" stroke-linecap="round"/>
  <path d="M667 119l14 11-14 11" fill="none" stroke="#64748b" stroke-width="4" stroke-linecap="round" stroke-linejoin="round"/>
  <text x="162" y="88" text-anchor="middle" font-family="Inter, Arial, sans-serif" font-size="24" font-weight="700" fill="#ffffff">Skill Pack</text>
  <text x="162" y="124" text-anchor="middle" font-family="Inter, Arial, sans-serif" font-size="16" fill="#e5e7eb">build · test · package</text>
  <text x="162" y="153" text-anchor="middle" font-family="Inter, Arial, sans-serif" font-size="16" fill="#e5e7eb">audit · prune</text>
  <text x="490" y="88" text-anchor="middle" font-family="Inter, Arial, sans-serif" font-size="24" font-weight="700" fill="#1f2933">CLI Hands</text>
  <text x="490" y="124" text-anchor="middle" font-family="Inter, Arial, sans-serif" font-size="16" fill="#475569">scaffold · lint · scan</text>
  <text x="490" y="153" text-anchor="middle" font-family="Inter, Arial, sans-serif" font-size="16" fill="#475569">local only</text>
  <text x="818" y="88" text-anchor="middle" font-family="Inter, Arial, sans-serif" font-size="24" font-weight="700" fill="#1f2933">Repo Health</text>
  <text x="818" y="124" text-anchor="middle" font-family="Inter, Arial, sans-serif" font-size="16" fill="#475569">installable skills</text>
  <text x="818" y="153" text-anchor="middle" font-family="Inter, Arial, sans-serif" font-size="16" fill="#475569">cleaner library</text>
  <circle cx="74" cy="70" r="7" fill="#2dd4bf"/>
  <circle cx="905" cy="190" r="7" fill="#f59e0b"/>
</svg>
